# xmcd
#
# Track frame offsets:
#       150
#       16277
#       31047
#       42774
#       50816
#       64581
#       84817
#       94358
#       105168
#       131924
#       146180
#       157517
#       169591
#       185360
#       200251
#
# Disc length: 2868 seconds
#
# Revision: 1
# Processed by: cddbd v1.4PL0 Copyright (c) Steve Scherf et al.
# Submitted via: MusiCat 1.1
#
DISCID=b60b320f
DTITLE=John Mayall and the Bluesbreakers - Blues Breakers with Eric Clapton
DYEAR=1900
DGENRE=
TTITLE0=All Your Love
TTITLE1=Hide Away
TTITLE2=little girl
TTITLE3=another man
TTITLE4=double crossing time
TTITLE5=what'd i say
TTITLE6=key to love
TTITLE7=parchman farm
TTITLE8=have you heard
TTITLE9=rambling on my mind
TTITLE10=steppin'out
TTITLE11=it ain't right
TTITLE12=oh pretty woman
TTITLE13=lonely years
TTITLE14=stormy monday - live
EXTD=0\n\n\n
EXTT0=
EXTT1=
EXTT2=
EXTT3=
EXTT4=
EXTT5=
EXTT6=
EXTT7=
EXTT8=
EXTT9=
EXTT10=
EXTT11=
EXTT12=
EXTT13=
EXTT14=
PLAYORDER=
